# xmcd
#
# Track frame offsets:
#	150
#	12312
#	23120
#	33851
#	45699
#	57663
#	68321
#	81827
#	93534
#	104465
#	115842
#	128216
#	139648
#	150929
#	162457
#	173177
#	184153
#	194953
#	205852
#	218109
#	228299
#	240226
#	250414
#	262728
#	273128
#
# Disc length: 3789 seconds
#
# Revision: 2
# Processed by: cddbd v1.5.2PL0 Copyright (c) Steve Scherf et al.
# Submitted via: audiograbber 1.83.01
#
DISCID=530ecb19
DTITLE=Various Artist - These Men In Love
DYEAR=1900
DGENRE=Northern Soul
TTITLE0=The New Wanderers - This Man In Love
TTITLE1=Royal Robins - Something About You Sends Me
TTITLE2=The Galahads - I've Got To Find A way
TTITLE3=The Parisians - Twinkle Little Star
TTITLE4=The Midniters - You're Gonna Make Me Cry
TTITLE5=The Fantastics - Goodbye To Love
TTITLE6=The Entertainers - Beg Me
TTITLE7=Soul Brothers Inc - Tear Drops
TTITLE8=The Icemen - It's Time You Knew
TTITLE9=Showstoppers - Heartbreaker
TTITLE10=The Danderliers - All The Way
TTITLE11=The Millionaires - Breakdown
TTITLE12=The Inticers - I Got To Find Me A Baby
TTITLE13=Endeavors - Beware Of Your Friends
TTITLE14=The Districts - One Lover (Just Won't Do)
TTITLE15=Executive Four - I Got A Good Thing Goin'
TTITLE16=The Squires - Don't Accuse Me
TTITLE17=The Classics - So Glad That I Found You
TTITLE18=The Isonics - Sugar
TTITLE19=The Four Reputations - Call On Me
TTITLE20=The Soul Gents - Wonders Of Love
TTITLE21=The Drapers - (I Know) Your Love Has Gone Away
TTITLE22=Rosey Jones and The Superiors - All I Need Is Half A Chance
TTITLE23=The Laddins - I'll Kiss Your Teardrops Away
TTITLE24=The Four Exceptions - A Sad Goodbye
EXTD=
EXTT0=
EXTT1=
EXTT2=
EXTT3=
EXTT4=
EXTT5=
EXTT6=
EXTT7=
EXTT8=
EXTT9=
EXTT10=
EXTT11=
EXTT12=
EXTT13=
EXTT14=
EXTT15=
EXTT16=
EXTT17=
EXTT18=
EXTT19=
EXTT20=
EXTT21=
EXTT22=
EXTT23=
EXTT24=
PLAYORDER=
